<svg xmlns="http://www.w3.org/2000/svg" width="2560" height="1440"><path d="M1384,794L1225,915L1377,921Z" fill="rgb(246,248,255)" stroke="rgb(246,248,255)" stroke-width="1.51"/><path d="M1384,794L1138,790L1225,915Z" fill="rgb(250,250,255)" stroke="rgb(250,250,255)" stroke-width="1.51"/><path d="M1225,915L1466,1134L1377,921Z" fill="rgb(240,243,255)" stroke="rgb(240,243,255)" stroke-width="1.51"/><path d="M1663,957L1650,753L1384,794Z" fill="rgb(241,244,255)" stroke="rgb(241,244,255)" stroke-width="1.51"/><path d="M1225,915L1127,1157L1466,1134Z" fill="rgb(237,241,255)" stroke="rgb(237,241,255)" stroke-width="1.51"/><path d="M1002,1137L1127,1157L1225,915Z" fill="rgb(237,240,254)" stroke="rgb(237,240,254)" stroke-width="1.51"/><path d="M1466,1134L1546,1113L1377,921Z" fill="rgb(233,238,255)" stroke="rgb(233,238,255)" stroke-width="1.51"/><path d="M1384,794L1329,497L1138,790Z" fill="rgb(255,254,254)" stroke="rgb(255,254,254)" stroke-width="1.51"/><path d="M1644,573L1329,497L1384,794Z" fill="rgb(250,249,253)" stroke="rgb(250,249,253)" stroke-width="1.51"/><path d="M1164,512L972,715L1138,790Z" fill="rgb(255,252,252)" stroke="rgb(255,252,252)" stroke-width="1.51"/><path d="M899,1002L1002,1137L1225,915Z" fill="rgb(240,241,253)" stroke="rgb(240,241,253)" stroke-width="1.51"/><path d="M1663,957L1384,794L1377,921Z" fill="rgb(241,244,255)" stroke="rgb(241,244,255)" stroke-width="1.51"/><path d="M1329,497L1164,512L1138,790Z" fill="rgb(255,252,252)" stroke="rgb(255,252,252)" stroke-width="1.51"/><path d="M1546,1113L1663,957L1377,921Z" fill="rgb(234,239,255)" stroke="rgb(234,239,255)" stroke-width="1.51"/><path d="M899,1002L1225,915L1138,790Z" fill="rgb(246,246,253)" stroke="rgb(246,246,253)" stroke-width="1.51"/><path d="M972,715L899,1002L1138,790Z" fill="rgb(249,247,252)" stroke="rgb(249,247,252)" stroke-width="1.51"/><path d="M1650,753L1644,573L1384,794Z" fill="rgb(247,249,255)" stroke="rgb(247,249,255)" stroke-width="1.51"/><path d="M1828,767L1644,573L1650,753Z" fill="rgb(243,245,255)" stroke="rgb(243,245,255)" stroke-width="1.51"/><path d="M899,1002L832,1120L1002,1137Z" fill="rgb(237,237,251)" stroke="rgb(237,237,251)" stroke-width="1.51"/><path d="M972,715L844,969L899,1002Z" fill="rgb(246,244,251)" stroke="rgb(246,244,251)" stroke-width="1.51"/><path d="M972,715L801,703L844,969Z" fill="rgb(251,248,251)" stroke="rgb(251,248,251)" stroke-width="1.51"/><path d="M1164,512L907,556L972,715Z" fill="rgb(255,250,250)" stroke="rgb(255,250,250)" stroke-width="1.51"/><path d="M1663,957L1828,767L1650,753Z" fill="rgb(237,241,255)" stroke="rgb(237,241,255)" stroke-width="1.51"/><path d="M1758,1093L1794,972L1663,957Z" fill="rgb(228,234,255)" stroke="rgb(228,234,255)" stroke-width="1.51"/><path d="M1546,1113L1758,1093L1663,957Z" fill="rgb(228,234,255)" stroke="rgb(228,234,255)" stroke-width="1.51"/><path d="M1643,1313L1758,1093L1546,1113Z" fill="rgb(221,230,255)" stroke="rgb(221,230,255)" stroke-width="1.51"/><path d="M1164,512L1137,363L907,556Z" fill="rgb(255,248,248)" stroke="rgb(255,248,248)" stroke-width="1.51"/><path d="M1329,497L1137,363L1164,512Z" fill="rgb(255,250,249)" stroke="rgb(255,250,249)" stroke-width="1.51"/><path d="M1465,236L1137,363L1329,497Z" fill="rgb(254,248,248)" stroke="rgb(254,248,248)" stroke-width="1.51"/><path d="M907,556L801,703L972,715Z" fill="rgb(255,250,250)" stroke="rgb(255,250,250)" stroke-width="1.51"/><path d="M1466,1134L1643,1313L1546,1113Z" fill="rgb(224,231,255)" stroke="rgb(224,231,255)" stroke-width="1.51"/><path d="M1127,1157L1400,1373L1466,1134Z" fill="rgb(228,235,255)" stroke="rgb(228,235,255)" stroke-width="1.51"/><path d="M1240,1400L1400,1373L1127,1157Z" fill="rgb(225,233,255)" stroke="rgb(225,233,255)" stroke-width="1.51"/><path d="M1794,972L1828,767L1663,957Z" fill="rgb(233,237,255)" stroke="rgb(233,237,255)" stroke-width="1.51"/><path d="M937,1340L1240,1400L1127,1157Z" fill="rgb(226,231,253)" stroke="rgb(226,231,253)" stroke-width="1.51"/><path d="M844,969L832,1120L899,1002Z" fill="rgb(239,238,251)" stroke="rgb(239,238,251)" stroke-width="1.51"/><path d="M593,971L832,1120L844,969Z" fill="rgb(240,238,250)" stroke="rgb(240,238,250)" stroke-width="1.51"/><path d="M1644,573L1511,347L1329,497Z" fill="rgb(249,246,251)" stroke="rgb(249,246,251)" stroke-width="1.51"/><path d="M1830,358L1511,347L1644,573Z" fill="rgb(244,241,250)" stroke="rgb(244,241,250)" stroke-width="1.51"/><path d="M937,1340L1127,1157L1002,1137Z" fill="rgb(230,234,253)" stroke="rgb(230,234,253)" stroke-width="1.51"/><path d="M1400,1373L1643,1313L1466,1134Z" fill="rgb(220,229,255)" stroke="rgb(220,229,255)" stroke-width="1.51"/><path d="M832,1120L937,1340L1002,1137Z" fill="rgb(231,233,252)" stroke="rgb(231,233,252)" stroke-width="1.51"/><path d="M1828,767L1821,505L1644,573Z" fill="rgb(241,242,253)" stroke="rgb(241,242,253)" stroke-width="1.51"/><path d="M1511,347L1465,236L1329,497Z" fill="rgb(251,245,248)" stroke="rgb(251,245,248)" stroke-width="1.51"/><path d="M1522,87L1465,236L1511,347Z" fill="rgb(249,242,246)" stroke="rgb(249,242,246)" stroke-width="1.51"/><path d="M1137,363L1059,261L907,556Z" fill="rgb(255,246,246)" stroke="rgb(255,246,246)" stroke-width="1.51"/><path d="M907,556L707,520L801,703Z" fill="rgb(255,247,247)" stroke="rgb(255,247,247)" stroke-width="1.51"/><path d="M1329,75L1059,261L1137,363Z" fill="rgb(255,245,245)" stroke="rgb(255,245,245)" stroke-width="1.51"/><path d="M1400,1373L1536,1454L1643,1313Z" fill="rgb(214,224,255)" stroke="rgb(214,224,255)" stroke-width="1.51"/><path d="M1396,1494L1536,1454L1400,1373Z" fill="rgb(214,224,255)" stroke="rgb(214,224,255)" stroke-width="1.51"/><path d="M1240,1400L1396,1494L1400,1373Z" fill="rgb(217,227,255)" stroke="rgb(217,227,255)" stroke-width="1.51"/><path d="M937,1340L1219,1492L1240,1400Z" fill="rgb(220,227,254)" stroke="rgb(220,227,254)" stroke-width="1.51"/><path d="M1219,1492L1396,1494L1240,1400Z" fill="rgb(218,228,255)" stroke="rgb(218,228,255)" stroke-width="1.51"/><path d="M1828,767L1976,601L1821,505Z" fill="rgb(238,240,254)" stroke="rgb(238,240,254)" stroke-width="1.51"/><path d="M1794,972L1954,765L1828,767Z" fill="rgb(233,238,255)" stroke="rgb(233,238,255)" stroke-width="1.51"/><path d="M2026,900L1954,765L1794,972Z" fill="rgb(229,235,255)" stroke="rgb(229,235,255)" stroke-width="1.51"/><path d="M1896,1139L1794,972L1758,1093Z" fill="rgb(222,230,255)" stroke="rgb(222,230,255)" stroke-width="1.51"/><path d="M1808,1343L1896,1139L1758,1093Z" fill="rgb(215,225,255)" stroke="rgb(215,225,255)" stroke-width="1.51"/><path d="M1808,1343L1758,1093L1643,1313Z" fill="rgb(215,225,255)" stroke="rgb(215,225,255)" stroke-width="1.51"/><path d="M937,1340L923,1547L1219,1492Z" fill="rgb(218,225,253)" stroke="rgb(218,225,253)" stroke-width="1.51"/><path d="M832,1120L798,1303L937,1340Z" fill="rgb(228,230,251)" stroke="rgb(228,230,251)" stroke-width="1.51"/><path d="M536,1139L798,1303L832,1120Z" fill="rgb(232,232,250)" stroke="rgb(232,232,250)" stroke-width="1.51"/><path d="M703,332L707,520L907,556Z" fill="rgb(255,245,245)" stroke="rgb(255,245,245)" stroke-width="1.51"/><path d="M801,703L593,971L844,969Z" fill="rgb(247,244,250)" stroke="rgb(247,244,250)" stroke-width="1.51"/><path d="M1795,1507L1808,1343L1643,1313Z" fill="rgb(207,220,255)" stroke="rgb(207,220,255)" stroke-width="1.51"/><path d="M1954,765L1976,601L1828,767Z" fill="rgb(237,241,255)" stroke="rgb(237,241,255)" stroke-width="1.51"/><path d="M1821,505L1830,358L1644,573Z" fill="rgb(241,240,251)" stroke="rgb(241,240,251)" stroke-width="1.51"/><path d="M532,663L593,971L801,703Z" fill="rgb(252,246,248)" stroke="rgb(252,246,248)" stroke-width="1.51"/><path d="M1945,330L1830,358L1821,505Z" fill="rgb(238,236,249)" stroke="rgb(238,236,249)" stroke-width="1.51"/><path d="M2232,1150L2026,900L1896,1139Z" fill="rgb(215,225,255)" stroke="rgb(215,225,255)" stroke-width="1.51"/><path d="M1896,1139L2026,900L1794,972Z" fill="rgb(223,230,255)" stroke="rgb(223,230,255)" stroke-width="1.51"/><path d="M1954,765L2092,678L1976,601Z" fill="rgb(234,239,255)" stroke="rgb(234,239,255)" stroke-width="1.51"/><path d="M707,520L587,573L801,703Z" fill="rgb(255,247,247)" stroke="rgb(255,247,247)" stroke-width="1.51"/><path d="M669,332L587,573L707,520Z" fill="rgb(255,244,244)" stroke="rgb(255,244,244)" stroke-width="1.51"/><path d="M1465,236L1329,75L1137,363Z" fill="rgb(254,245,246)" stroke="rgb(254,245,246)" stroke-width="1.51"/><path d="M1059,261L703,332L907,556Z" fill="rgb(255,245,245)" stroke="rgb(255,245,245)" stroke-width="1.51"/><path d="M1522,87L1329,75L1465,236Z" fill="rgb(251,241,244)" stroke="rgb(251,241,244)" stroke-width="1.51"/><path d="M749,1476L923,1547L937,1340Z" fill="rgb(219,224,251)" stroke="rgb(219,224,251)" stroke-width="1.51"/><path d="M1219,1492L1465,1644L1396,1494Z" fill="rgb(216,226,255)" stroke="rgb(216,226,255)" stroke-width="1.51"/><path d="M749,1476L937,1340L798,1303Z" fill="rgb(222,226,251)" stroke="rgb(222,226,251)" stroke-width="1.51"/><path d="M587,573L532,663L801,703Z" fill="rgb(255,247,247)" stroke="rgb(255,247,247)" stroke-width="1.51"/><path d="M755,153L703,332L1059,261Z" fill="rgb(255,242,242)" stroke="rgb(255,242,242)" stroke-width="1.51"/><path d="M587,573L396,462L532,663Z" fill="rgb(255,244,244)" stroke="rgb(255,244,244)" stroke-width="1.51"/><path d="M1830,358L1522,87L1511,347Z" fill="rgb(246,240,247)" stroke="rgb(246,240,247)" stroke-width="1.51"/><path d="M1536,1454L1795,1507L1643,1313Z" fill="rgb(208,220,255)" stroke="rgb(208,220,255)" stroke-width="1.51"/><path d="M1396,1494L1465,1644L1536,1454Z" fill="rgb(213,224,255)" stroke="rgb(213,224,255)" stroke-width="1.51"/><path d="M1220,1770L1465,1644L1219,1492Z" fill="rgb(218,227,255)" stroke="rgb(218,227,255)" stroke-width="1.51"/><path d="M1976,601L1945,330L1821,505Z" fill="rgb(237,237,251)" stroke="rgb(237,237,251)" stroke-width="1.51"/><path d="M2026,900L2092,678L1954,765Z" fill="rgb(231,236,255)" stroke="rgb(231,236,255)" stroke-width="1.51"/><path d="M1329,75L1114,67L1059,261Z" fill="rgb(255,243,243)" stroke="rgb(255,243,243)" stroke-width="1.51"/><path d="M1808,1343L1984,1362L1896,1139Z" fill="rgb(209,221,255)" stroke="rgb(209,221,255)" stroke-width="1.51"/><path d="M1656,1672L1795,1507L1536,1454Z" fill="rgb(207,220,255)" stroke="rgb(207,220,255)" stroke-width="1.51"/><path d="M593,971L536,1139L832,1120Z" fill="rgb(237,235,249)" stroke="rgb(237,235,249)" stroke-width="1.51"/><path d="M468,958L536,1139L593,971Z" fill="rgb(240,236,248)" stroke="rgb(240,236,248)" stroke-width="1.51"/><path d="M703,332L669,332L707,520Z" fill="rgb(255,243,243)" stroke="rgb(255,243,243)" stroke-width="1.51"/><path d="M614,171L669,332L703,332Z" fill="rgb(255,240,240)" stroke="rgb(255,240,240)" stroke-width="1.51"/><path d="M1830,358L1771,37L1522,87Z" fill="rgb(243,236,245)" stroke="rgb(243,236,245)" stroke-width="1.51"/><path d="M2196,530L1945,330L1976,601Z" fill="rgb(234,235,251)" stroke="rgb(234,235,251)" stroke-width="1.51"/><path d="M643,1511L749,1476L524,1377Z" fill="rgb(219,221,249)" stroke="rgb(219,221,249)" stroke-width="1.51"/><path d="M532,663L468,958L593,971Z" fill="rgb(248,242,247)" stroke="rgb(248,242,247)" stroke-width="1.51"/><path d="M1795,1507L1984,1362L1808,1343Z" fill="rgb(203,217,255)" stroke="rgb(203,217,255)" stroke-width="1.51"/><path d="M2026,900L2249,848L2092,678Z" fill="rgb(226,233,255)" stroke="rgb(226,233,255)" stroke-width="1.51"/><path d="M949,36L755,153L1059,261Z" fill="rgb(255,241,241)" stroke="rgb(255,241,241)" stroke-width="1.51"/><path d="M1114,67L949,36L1059,261Z" fill="rgb(255,241,241)" stroke="rgb(255,241,241)" stroke-width="1.51"/><path d="M1017,-59L949,36L1114,67Z" fill="rgb(255,240,240)" stroke="rgb(255,240,240)" stroke-width="1.51"/><path d="M1134,-104L1114,67L1329,75Z" fill="rgb(255,241,241)" stroke="rgb(255,241,241)" stroke-width="1.51"/><path d="M1465,1644L1656,1672L1536,1454Z" fill="rgb(210,222,255)" stroke="rgb(210,222,255)" stroke-width="1.51"/><path d="M1795,1507L2001,1546L1984,1362Z" fill="rgb(199,214,255)" stroke="rgb(199,214,255)" stroke-width="1.51"/><path d="M468,958L447,1138L536,1139Z" fill="rgb(237,233,247)" stroke="rgb(237,233,247)" stroke-width="1.51"/><path d="M524,1377L749,1476L798,1303Z" fill="rgb(221,224,249)" stroke="rgb(221,224,249)" stroke-width="1.51"/><path d="M2142,1577L2105,1295L1984,1362Z" fill="rgb(196,212,255)" stroke="rgb(196,212,255)" stroke-width="1.51"/><path d="M1984,1362L2105,1295L1896,1139Z" fill="rgb(206,219,255)" stroke="rgb(206,219,255)" stroke-width="1.51"/><path d="M1054,1805L1220,1770L1219,1492Z" fill="rgb(218,227,254)" stroke="rgb(218,227,254)" stroke-width="1.51"/><path d="M1465,1644L1742,1774L1656,1672Z" fill="rgb(208,220,255)" stroke="rgb(208,220,255)" stroke-width="1.51"/><path d="M1054,1805L1219,1492L923,1547Z" fill="rgb(218,226,253)" stroke="rgb(218,226,253)" stroke-width="1.51"/><path d="M749,1476L859,1714L923,1547Z" fill="rgb(219,223,251)" stroke="rgb(219,223,251)" stroke-width="1.51"/><path d="M524,1377L798,1303L536,1139Z" fill="rgb(228,227,249)" stroke="rgb(228,227,249)" stroke-width="1.51"/><path d="M431,1280L524,1377L536,1139Z" fill="rgb(228,226,247)" stroke="rgb(228,226,247)" stroke-width="1.51"/><path d="M1522,87L1393,-96L1329,75Z" fill="rgb(251,240,242)" stroke="rgb(251,240,242)" stroke-width="1.51"/><path d="M1945,330L1771,37L1830,358Z" fill="rgb(239,234,247)" stroke="rgb(239,234,247)" stroke-width="1.51"/><path d="M2092,678L2196,530L1976,601Z" fill="rgb(232,236,253)" stroke="rgb(232,236,253)" stroke-width="1.51"/><path d="M2320,975L2249,848L2026,900Z" fill="rgb(219,228,255)" stroke="rgb(219,228,255)" stroke-width="1.51"/><path d="M2352,677L2196,530L2092,678Z" fill="rgb(229,233,254)" stroke="rgb(229,233,254)" stroke-width="1.51"/><path d="M1945,330L1903,2L1771,37Z" fill="rgb(239,232,244)" stroke="rgb(239,232,244)" stroke-width="1.51"/><path d="M1541,-148L1393,-96L1522,87Z" fill="rgb(249,238,242)" stroke="rgb(249,238,242)" stroke-width="1.51"/><path d="M1771,37L1707,-12L1522,87Z" fill="rgb(245,234,242)" stroke="rgb(245,234,242)" stroke-width="1.51"/><path d="M949,36L793,-83L755,153Z" fill="rgb(255,238,238)" stroke="rgb(255,238,238)" stroke-width="1.51"/><path d="M1134,-104L1017,-59L1114,67Z" fill="rgb(255,240,240)" stroke="rgb(255,240,240)" stroke-width="1.51"/><path d="M643,1511L859,1714L749,1476Z" fill="rgb(219,222,250)" stroke="rgb(219,222,250)" stroke-width="1.51"/><path d="M755,153L614,171L703,332Z" fill="rgb(255,240,240)" stroke="rgb(255,240,240)" stroke-width="1.51"/><path d="M669,332L396,462L587,573Z" fill="rgb(255,242,242)" stroke="rgb(255,242,242)" stroke-width="1.51"/><path d="M532,663L317,633L468,958Z" fill="rgb(254,245,246)" stroke="rgb(254,245,246)" stroke-width="1.51"/><path d="M793,-83L614,171L755,153Z" fill="rgb(255,238,238)" stroke="rgb(255,238,238)" stroke-width="1.51"/><path d="M447,1138L431,1280L536,1139Z" fill="rgb(232,229,247)" stroke="rgb(232,229,247)" stroke-width="1.51"/><path d="M524,1377L410,1447L643,1511Z" fill="rgb(219,220,248)" stroke="rgb(219,220,248)" stroke-width="1.51"/><path d="M1393,-96L1134,-104L1329,75Z" fill="rgb(255,242,242)" stroke="rgb(255,242,242)" stroke-width="1.51"/><path d="M2105,1295L2232,1150L1896,1139Z" fill="rgb(208,220,255)" stroke="rgb(208,220,255)" stroke-width="1.51"/><path d="M2105,1295L2302,1322L2232,1150Z" fill="rgb(201,215,255)" stroke="rgb(201,215,255)" stroke-width="1.51"/><path d="M1941,1750L2001,1546L1795,1507Z" fill="rgb(199,214,255)" stroke="rgb(199,214,255)" stroke-width="1.51"/><path d="M859,1714L1054,1805L923,1547Z" fill="rgb(219,224,252)" stroke="rgb(219,224,252)" stroke-width="1.51"/><path d="M365,266L396,462L669,332Z" fill="rgb(255,240,240)" stroke="rgb(255,240,240)" stroke-width="1.51"/><path d="M468,958L221,1093L447,1138Z" fill="rgb(238,233,246)" stroke="rgb(238,233,246)" stroke-width="1.51"/><path d="M447,1138L221,1093L431,1280Z" fill="rgb(233,228,246)" stroke="rgb(233,228,246)" stroke-width="1.51"/><path d="M396,462L317,633L532,663Z" fill="rgb(255,243,243)" stroke="rgb(255,243,243)" stroke-width="1.51"/><path d="M1656,1672L1742,1774L1795,1507Z" fill="rgb(205,218,255)" stroke="rgb(205,218,255)" stroke-width="1.51"/><path d="M1220,1770L1742,1774L1465,1644Z" fill="rgb(213,224,255)" stroke="rgb(213,224,255)" stroke-width="1.51"/><path d="M1054,1805L1742,1774L1220,1770Z" fill="rgb(217,226,255)" stroke="rgb(217,226,255)" stroke-width="1.51"/><path d="M2232,1150L2320,975L2026,900Z" fill="rgb(214,224,255)" stroke="rgb(214,224,255)" stroke-width="1.51"/><path d="M2249,848L2352,677L2092,678Z" fill="rgb(228,234,255)" stroke="rgb(228,234,255)" stroke-width="1.51"/><path d="M1834,-221L1541,-148L1707,-12Z" fill="rgb(244,233,242)" stroke="rgb(244,233,242)" stroke-width="1.51"/><path d="M1707,-12L1541,-148L1522,87Z" fill="rgb(247,236,242)" stroke="rgb(247,236,242)" stroke-width="1.51"/><path d="M1393,-96L1350,-292L1134,-104Z" fill="rgb(255,241,242)" stroke="rgb(255,241,242)" stroke-width="1.51"/><path d="M2203,242L2069,158L1945,330Z" fill="rgb(233,229,247)" stroke="rgb(233,229,247)" stroke-width="1.51"/><path d="M1771,37L1903,2L1707,-12Z" fill="rgb(241,231,242)" stroke="rgb(241,231,242)" stroke-width="1.51"/><path d="M2069,158L1903,2L1945,330Z" fill="rgb(236,230,245)" stroke="rgb(236,230,245)" stroke-width="1.51"/><path d="M2196,530L2203,242L1945,330Z" fill="rgb(232,230,249)" stroke="rgb(232,230,249)" stroke-width="1.51"/><path d="M2320,975L2352,677L2249,848Z" fill="rgb(220,228,255)" stroke="rgb(220,228,255)" stroke-width="1.51"/><path d="M1020,-335L793,-83L1017,-59Z" fill="rgb(255,238,238)" stroke="rgb(255,238,238)" stroke-width="1.51"/><path d="M1017,-59L793,-83L949,36Z" fill="rgb(255,238,238)" stroke="rgb(255,238,238)" stroke-width="1.51"/><path d="M614,171L365,266L669,332Z" fill="rgb(255,239,239)" stroke="rgb(255,239,239)" stroke-width="1.51"/><path d="M1020,-335L1017,-59L1134,-104Z" fill="rgb(255,239,239)" stroke="rgb(255,239,239)" stroke-width="1.51"/><path d="M431,1280L410,1447L524,1377Z" fill="rgb(223,222,247)" stroke="rgb(223,222,247)" stroke-width="1.51"/><path d="M643,1511L652,1776L859,1714Z" fill="rgb(219,222,250)" stroke="rgb(219,222,250)" stroke-width="1.51"/><path d="M189,1451L410,1447L431,1280Z" fill="rgb(221,220,246)" stroke="rgb(221,220,246)" stroke-width="1.51"/><path d="M317,633L227,748L468,958Z" fill="rgb(252,243,245)" stroke="rgb(252,243,245)" stroke-width="1.51"/><path d="M182,584L227,748L317,633Z" fill="rgb(255,243,243)" stroke="rgb(255,243,243)" stroke-width="1.51"/><path d="M2069,158L2100,-68L1903,2Z" fill="rgb(235,226,243)" stroke="rgb(235,226,243)" stroke-width="1.51"/><path d="M2374,470L2203,242L2196,530Z" fill="rgb(227,228,250)" stroke="rgb(227,228,250)" stroke-width="1.51"/><path d="M1742,1774L1941,1750L1795,1507Z" fill="rgb(202,216,255)" stroke="rgb(202,216,255)" stroke-width="1.51"/><path d="M2142,1577L2302,1322L2105,1295Z" fill="rgb(194,210,255)" stroke="rgb(194,210,255)" stroke-width="1.51"/><path d="M2232,1150L2434,1064L2320,975Z" fill="rgb(207,220,255)" stroke="rgb(207,220,255)" stroke-width="1.51"/><path d="M2142,1577L1984,1362L2001,1546Z" fill="rgb(195,211,255)" stroke="rgb(195,211,255)" stroke-width="1.51"/><path d="M2320,975L2575,936L2352,677Z" fill="rgb(215,225,255)" stroke="rgb(215,225,255)" stroke-width="1.51"/><path d="M396,462L182,584L317,633Z" fill="rgb(255,242,242)" stroke="rgb(255,242,242)" stroke-width="1.51"/><path d="M393,161L365,266L614,171Z" fill="rgb(255,237,237)" stroke="rgb(255,237,237)" stroke-width="1.51"/><path d="M1941,1750L2142,1577L2001,1546Z" fill="rgb(196,212,255)" stroke="rgb(196,212,255)" stroke-width="1.51"/><path d="M167,869L221,1093L468,958Z" fill="rgb(242,236,245)" stroke="rgb(242,236,245)" stroke-width="1.51"/><path d="M368,1765L652,1776L643,1511Z" fill="rgb(219,220,248)" stroke="rgb(219,220,248)" stroke-width="1.51"/><path d="M859,1714L652,1776L1054,1805Z" fill="rgb(219,223,251)" stroke="rgb(219,223,251)" stroke-width="1.51"/><path d="M46,663L167,869L227,748Z" fill="rgb(253,242,243)" stroke="rgb(253,242,243)" stroke-width="1.51"/><path d="M227,748L167,869L468,958Z" fill="rgb(248,240,245)" stroke="rgb(248,240,245)" stroke-width="1.51"/><path d="M2352,677L2374,470L2196,530Z" fill="rgb(226,230,252)" stroke="rgb(226,230,252)" stroke-width="1.51"/><path d="M2616,487L2374,470L2352,677Z" fill="rgb(222,227,252)" stroke="rgb(222,227,252)" stroke-width="1.51"/><path d="M169,338L182,584L396,462Z" fill="rgb(255,240,240)" stroke="rgb(255,240,240)" stroke-width="1.51"/><path d="M550,-161L393,161L614,171Z" fill="rgb(255,235,235)" stroke="rgb(255,235,235)" stroke-width="1.51"/><path d="M1541,-148L1350,-292L1393,-96Z" fill="rgb(251,239,242)" stroke="rgb(251,239,242)" stroke-width="1.51"/><path d="M1612,-370L1350,-292L1541,-148Z" fill="rgb(249,237,242)" stroke="rgb(249,237,242)" stroke-width="1.51"/><path d="M2302,1322L2434,1064L2232,1150Z" fill="rgb(201,215,255)" stroke="rgb(201,215,255)" stroke-width="1.51"/><path d="M169,338L396,462L365,266Z" fill="rgb(255,238,238)" stroke="rgb(255,238,238)" stroke-width="1.51"/><path d="M2203,242L2209,137L2069,158Z" fill="rgb(231,226,245)" stroke="rgb(231,226,245)" stroke-width="1.51"/><path d="M1903,2L1834,-221L1707,-12Z" fill="rgb(240,231,242)" stroke="rgb(240,231,242)" stroke-width="1.51"/><path d="M2427,165L2209,137L2203,242Z" fill="rgb(227,224,245)" stroke="rgb(227,224,245)" stroke-width="1.51"/><path d="M2521,1252L2545,1057L2434,1064Z" fill="rgb(199,213,255)" stroke="rgb(199,213,255)" stroke-width="1.51"/><path d="M2142,1577L2389,1597L2302,1322Z" fill="rgb(188,207,255)" stroke="rgb(188,207,255)" stroke-width="1.51"/><path d="M1941,1750L2208,1632L2142,1577Z" fill="rgb(194,210,255)" stroke="rgb(194,210,255)" stroke-width="1.51"/><path d="M1946,-195L1834,-221L1903,2Z" fill="rgb(238,229,242)" stroke="rgb(238,229,242)" stroke-width="1.51"/><path d="M1350,-292L1110,-349L1134,-104Z" fill="rgb(255,241,241)" stroke="rgb(255,241,241)" stroke-width="1.51"/><path d="M793,-83L550,-161L614,171Z" fill="rgb(255,235,235)" stroke="rgb(255,235,235)" stroke-width="1.51"/><path d="M1612,-370L1110,-349L1350,-292Z" fill="rgb(253,241,242)" stroke="rgb(253,241,242)" stroke-width="1.51"/><path d="M2209,137L2100,-68L2069,158Z" fill="rgb(232,225,244)" stroke="rgb(232,225,244)" stroke-width="1.51"/><path d="M1110,-349L1020,-335L1134,-104Z" fill="rgb(255,240,240)" stroke="rgb(255,240,240)" stroke-width="1.51"/><path d="M2100,-68L1946,-195L1903,2Z" fill="rgb(236,227,242)" stroke="rgb(236,227,242)" stroke-width="1.51"/><path d="M157,122L169,338L365,266Z" fill="rgb(255,236,236)" stroke="rgb(255,236,236)" stroke-width="1.51"/><path d="M46,663L58,992L167,869Z" fill="rgb(249,239,243)" stroke="rgb(249,239,243)" stroke-width="1.51"/><path d="M157,122L365,266L393,161Z" fill="rgb(255,236,235)" stroke="rgb(255,236,235)" stroke-width="1.51"/><path d="M167,869L58,992L221,1093Z" fill="rgb(242,234,244)" stroke="rgb(242,234,244)" stroke-width="1.51"/><path d="M221,1093L136,1309L431,1280Z" fill="rgb(230,225,245)" stroke="rgb(230,225,245)" stroke-width="1.51"/><path d="M410,1447L368,1765L643,1511Z" fill="rgb(219,220,247)" stroke="rgb(219,220,247)" stroke-width="1.51"/><path d="M46,663L227,748L182,584Z" fill="rgb(255,242,242)" stroke="rgb(255,242,242)" stroke-width="1.51"/><path d="M-2,1135L136,1309L221,1093Z" fill="rgb(233,225,243)" stroke="rgb(233,225,243)" stroke-width="1.51"/><path d="M2434,1064L2575,936L2320,975Z" fill="rgb(207,220,255)" stroke="rgb(207,220,255)" stroke-width="1.51"/><path d="M2521,1252L2434,1064L2302,1322Z" fill="rgb(196,212,255)" stroke="rgb(196,212,255)" stroke-width="1.51"/><path d="M2218,-329L1612,-370L1834,-221Z" fill="rgb(238,229,242)" stroke="rgb(238,229,242)" stroke-width="1.51"/><path d="M1834,-221L1612,-370L1541,-148Z" fill="rgb(245,234,242)" stroke="rgb(245,234,242)" stroke-width="1.51"/><path d="M603,-226L550,-161L793,-83Z" fill="rgb(255,235,235)" stroke="rgb(255,235,235)" stroke-width="1.51"/><path d="M136,1309L189,1451L431,1280Z" fill="rgb(224,221,245)" stroke="rgb(224,221,245)" stroke-width="1.51"/><path d="M-74,565L46,663L182,584Z" fill="rgb(255,240,240)" stroke="rgb(255,240,240)" stroke-width="1.51"/><path d="M2545,1057L2575,936L2434,1064Z" fill="rgb(204,217,255)" stroke="rgb(204,217,255)" stroke-width="1.51"/><path d="M2616,487L2456,309L2374,470Z" fill="rgb(221,224,250)" stroke="rgb(221,224,250)" stroke-width="1.51"/><path d="M2374,470L2456,309L2203,242Z" fill="rgb(225,225,248)" stroke="rgb(225,225,248)" stroke-width="1.51"/><path d="M2209,137L2327,-1L2100,-68Z" fill="rgb(229,222,243)" stroke="rgb(229,222,243)" stroke-width="1.51"/><path d="M2553,1564L2521,1252L2302,1322Z" fill="rgb(186,205,255)" stroke="rgb(186,205,255)" stroke-width="1.51"/><path d="M2696,846L2642,808L2575,936Z" fill="rgb(211,222,255)" stroke="rgb(211,222,255)" stroke-width="1.51"/><path d="M774,-328L603,-226L793,-83Z" fill="rgb(255,236,236)" stroke="rgb(255,236,236)" stroke-width="1.51"/><path d="M1020,-335L774,-328L793,-83Z" fill="rgb(255,238,237)" stroke="rgb(255,238,237)" stroke-width="1.51"/><path d="M1110,-349L774,-328L1020,-335Z" fill="rgb(255,239,239)" stroke="rgb(255,239,239)" stroke-width="1.51"/><path d="M189,1451L368,1765L410,1447Z" fill="rgb(219,218,245)" stroke="rgb(219,218,245)" stroke-width="1.51"/><path d="M652,1776L-4,1804L1054,1805Z" fill="rgb(219,221,248)" stroke="rgb(219,221,248)" stroke-width="1.51"/><path d="M2208,1632L2389,1597L2142,1577Z" fill="rgb(189,207,255)" stroke="rgb(189,207,255)" stroke-width="1.51"/><path d="M2418,1733L2389,1597L2208,1632Z" fill="rgb(186,205,255)" stroke="rgb(186,205,255)" stroke-width="1.51"/><path d="M2456,309L2427,165L2203,242Z" fill="rgb(225,223,247)" stroke="rgb(225,223,247)" stroke-width="1.51"/><path d="M2100,-68L2218,-329L1946,-195Z" fill="rgb(233,225,242)" stroke="rgb(233,225,242)" stroke-width="1.51"/><path d="M2427,165L2327,-1L2209,137Z" fill="rgb(226,222,244)" stroke="rgb(226,222,244)" stroke-width="1.51"/><path d="M1946,-195L2218,-329L1834,-221Z" fill="rgb(235,226,242)" stroke="rgb(235,226,242)" stroke-width="1.51"/><path d="M136,1309L-6,1557L189,1451Z" fill="rgb(219,216,243)" stroke="rgb(219,216,243)" stroke-width="1.51"/><path d="M189,1451L115,1722L368,1765Z" fill="rgb(219,217,245)" stroke="rgb(219,217,245)" stroke-width="1.51"/><path d="M58,992L-2,1135L221,1093Z" fill="rgb(238,230,243)" stroke="rgb(238,230,243)" stroke-width="1.51"/><path d="M-140,959L-2,1135L58,992Z" fill="rgb(240,230,242)" stroke="rgb(240,230,242)" stroke-width="1.51"/><path d="M2696,846L2575,936L2794,1170Z" fill="rgb(204,218,255)" stroke="rgb(204,218,255)" stroke-width="1.51"/><path d="M2575,936L2642,808L2352,677Z" fill="rgb(214,225,255)" stroke="rgb(214,225,255)" stroke-width="1.51"/><path d="M2456,309L2630,172L2427,165Z" fill="rgb(221,220,246)" stroke="rgb(221,220,246)" stroke-width="1.51"/><path d="M169,338L19,383L182,584Z" fill="rgb(255,238,238)" stroke="rgb(255,238,238)" stroke-width="1.51"/><path d="M348,-125L157,122L393,161Z" fill="rgb(255,233,233)" stroke="rgb(255,233,233)" stroke-width="1.51"/><path d="M348,-125L393,161L550,-161Z" fill="rgb(255,233,233)" stroke="rgb(255,233,233)" stroke-width="1.51"/><path d="M2642,808L2616,487L2352,677Z" fill="rgb(219,227,254)" stroke="rgb(219,227,254)" stroke-width="1.51"/><path d="M411,-200L550,-161L603,-226Z" fill="rgb(255,234,234)" stroke="rgb(255,234,234)" stroke-width="1.51"/><path d="M411,-200L348,-125L550,-161Z" fill="rgb(255,233,233)" stroke="rgb(255,233,233)" stroke-width="1.51"/><path d="M46,663L-140,959L58,992Z" fill="rgb(248,236,242)" stroke="rgb(248,236,242)" stroke-width="1.51"/><path d="M157,122L19,383L169,338Z" fill="rgb(255,235,235)" stroke="rgb(255,235,235)" stroke-width="1.51"/><path d="M774,-328L411,-200L603,-226Z" fill="rgb(255,235,235)" stroke="rgb(255,235,235)" stroke-width="1.51"/><path d="M2642,808L2777,655L2616,487Z" fill="rgb(218,226,254)" stroke="rgb(218,226,254)" stroke-width="1.51"/><path d="M2794,1170L2575,936L2545,1057Z" fill="rgb(200,215,255)" stroke="rgb(200,215,255)" stroke-width="1.51"/><path d="M2794,1170L2545,1057L2521,1252Z" fill="rgb(195,211,255)" stroke="rgb(195,211,255)" stroke-width="1.51"/><path d="M-2,1135L-26,1285L136,1309Z" fill="rgb(229,222,243)" stroke="rgb(229,222,243)" stroke-width="1.51"/><path d="M-197,1087L-26,1285L-2,1135Z" fill="rgb(233,225,242)" stroke="rgb(233,225,242)" stroke-width="1.51"/><path d="M19,383L-74,565L182,584Z" fill="rgb(255,238,238)" stroke="rgb(255,238,238)" stroke-width="1.51"/><path d="M2756,321L2636,386L2824,527Z" fill="rgb(219,222,250)" stroke="rgb(219,222,250)" stroke-width="1.51"/><path d="M2616,487L2636,386L2456,309Z" fill="rgb(219,222,249)" stroke="rgb(219,222,249)" stroke-width="1.51"/><path d="M2636,-155L2600,-193L2327,-1Z" fill="rgb(221,216,242)" stroke="rgb(221,216,242)" stroke-width="1.51"/><path d="M2389,1597L2553,1564L2302,1322Z" fill="rgb(184,204,255)" stroke="rgb(184,204,255)" stroke-width="1.51"/><path d="M1941,1750L2418,1733L2208,1632Z" fill="rgb(191,208,255)" stroke="rgb(191,208,255)" stroke-width="1.51"/><path d="M2500,1781L2418,1733L1941,1750Z" fill="rgb(188,206,255)" stroke="rgb(188,206,255)" stroke-width="1.51"/><path d="M2418,1733L2553,1564L2389,1597Z" fill="rgb(183,203,255)" stroke="rgb(183,203,255)" stroke-width="1.51"/><path d="M-210,777L-140,959L46,663Z" fill="rgb(251,239,242)" stroke="rgb(251,239,242)" stroke-width="1.51"/><path d="M411,-200L237,-137L348,-125Z" fill="rgb(255,232,232)" stroke="rgb(255,232,232)" stroke-width="1.51"/><path d="M348,-125L237,-137L157,122Z" fill="rgb(255,231,231)" stroke="rgb(255,231,231)" stroke-width="1.51"/><path d="M-205,392L-74,565L19,383Z" fill="rgb(255,237,237)" stroke="rgb(255,237,237)" stroke-width="1.51"/><path d="M-185,555L-210,777L-74,565Z" fill="rgb(255,240,240)" stroke="rgb(255,240,240)" stroke-width="1.51"/><path d="M-6,1557L136,1309L-26,1285Z" fill="rgb(222,217,243)" stroke="rgb(222,217,243)" stroke-width="1.51"/><path d="M-6,1557L115,1722L189,1451Z" fill="rgb(219,216,243)" stroke="rgb(219,216,243)" stroke-width="1.51"/><path d="M-278,1483L-6,1557L-26,1285Z" fill="rgb(219,215,242)" stroke="rgb(219,215,242)" stroke-width="1.51"/><path d="M2696,846L2777,655L2642,808Z" fill="rgb(216,226,255)" stroke="rgb(216,226,255)" stroke-width="1.51"/><path d="M2794,1170L2777,655L2696,846Z" fill="rgb(209,221,255)" stroke="rgb(209,221,255)" stroke-width="1.51"/><path d="M2756,321L2630,172L2636,386Z" fill="rgb(219,220,248)" stroke="rgb(219,220,248)" stroke-width="1.51"/><path d="M2636,386L2630,172L2456,309Z" fill="rgb(219,220,247)" stroke="rgb(219,220,247)" stroke-width="1.51"/><path d="M2375,-292L2218,-329L2327,-1Z" fill="rgb(227,220,242)" stroke="rgb(227,220,242)" stroke-width="1.51"/><path d="M2327,-1L2218,-329L2100,-68Z" fill="rgb(229,222,242)" stroke="rgb(229,222,242)" stroke-width="1.51"/><path d="M2850,1393L2794,1170L2521,1252Z" fill="rgb(189,207,255)" stroke="rgb(189,207,255)" stroke-width="1.51"/><path d="M2418,1733L2500,1781L2553,1564Z" fill="rgb(181,202,255)" stroke="rgb(181,202,255)" stroke-width="1.51"/><path d="M1742,1774L2500,1781L1941,1750Z" fill="rgb(195,211,255)" stroke="rgb(195,211,255)" stroke-width="1.51"/><path d="M1054,1805L2500,1781L1742,1774Z" fill="rgb(204,217,255)" stroke="rgb(204,217,255)" stroke-width="1.51"/><path d="M-74,565L-210,777L46,663Z" fill="rgb(255,241,241)" stroke="rgb(255,241,241)" stroke-width="1.51"/><path d="M-140,959L-197,1087L-2,1135Z" fill="rgb(238,229,242)" stroke="rgb(238,229,242)" stroke-width="1.51"/><path d="M-185,555L-74,565L-205,392Z" fill="rgb(255,238,238)" stroke="rgb(255,238,238)" stroke-width="1.51"/><path d="M-205,392L19,383L-142,191Z" fill="rgb(255,235,235)" stroke="rgb(255,235,235)" stroke-width="1.51"/><path d="M-210,777L-197,1087L-140,959Z" fill="rgb(245,234,242)" stroke="rgb(245,234,242)" stroke-width="1.51"/><path d="M2850,1393L2521,1252L2553,1564Z" fill="rgb(181,202,255)" stroke="rgb(181,202,255)" stroke-width="1.51"/><path d="M2824,527L2636,386L2616,487Z" fill="rgb(219,223,251)" stroke="rgb(219,223,251)" stroke-width="1.51"/><path d="M2600,-193L2375,-292L2327,-1Z" fill="rgb(223,217,242)" stroke="rgb(223,217,242)" stroke-width="1.51"/><path d="M2777,655L2824,527L2616,487Z" fill="rgb(219,225,252)" stroke="rgb(219,225,252)" stroke-width="1.51"/><path d="M2794,1170L2824,527L2777,655Z" fill="rgb(215,225,255)" stroke="rgb(215,225,255)" stroke-width="1.51"/><path d="M-29,-152L-68,71L157,122Z" fill="rgb(255,229,229)" stroke="rgb(255,229,229)" stroke-width="1.51"/><path d="M411,-200L167,-222L237,-137Z" fill="rgb(255,232,231)" stroke="rgb(255,232,231)" stroke-width="1.51"/><path d="M774,-328L167,-222L411,-200Z" fill="rgb(255,233,233)" stroke="rgb(255,233,233)" stroke-width="1.51"/><path d="M2327,-1L2427,165L2636,-155Z" fill="rgb(222,217,242)" stroke="rgb(222,217,242)" stroke-width="1.51"/><path d="M-142,191L19,383L157,122Z" fill="rgb(255,233,233)" stroke="rgb(255,233,233)" stroke-width="1.51"/><path d="M-185,555L-205,392L-210,777Z" fill="rgb(255,239,239)" stroke="rgb(255,239,239)" stroke-width="1.51"/><path d="M-29,-152L157,122L237,-137Z" fill="rgb(255,230,230)" stroke="rgb(255,230,230)" stroke-width="1.51"/><path d="M-68,71L-142,191L157,122Z" fill="rgb(255,231,231)" stroke="rgb(255,231,231)" stroke-width="1.51"/><path d="M-6,1557L-4,1804L115,1722Z" fill="rgb(219,215,243)" stroke="rgb(219,215,243)" stroke-width="1.51"/><path d="M115,1722L-4,1804L368,1765Z" fill="rgb(219,216,244)" stroke="rgb(219,216,244)" stroke-width="1.51"/><path d="M368,1765L-4,1804L652,1776Z" fill="rgb(219,218,246)" stroke="rgb(219,218,246)" stroke-width="1.51"/><path d="M-254,1729L-4,1804L-6,1557Z" fill="rgb(219,215,242)" stroke="rgb(219,215,242)" stroke-width="1.51"/><path d="M-197,1087L-271,1234L-26,1285Z" fill="rgb(231,223,242)" stroke="rgb(231,223,242)" stroke-width="1.51"/><path d="M-210,777L-271,1234L-197,1087Z" fill="rgb(240,230,242)" stroke="rgb(240,230,242)" stroke-width="1.51"/><path d="M-205,392L-271,1234L-210,777Z" fill="rgb(251,239,242)" stroke="rgb(251,239,242)" stroke-width="1.51"/><path d="M2800,1725L2760,1576L2553,1564Z" fill="rgb(179,201,255)" stroke="rgb(179,201,255)" stroke-width="1.51"/><path d="M2794,1170L2850,1393L2824,527Z" fill="rgb(202,216,255)" stroke="rgb(202,216,255)" stroke-width="1.51"/><path d="M2760,1576L2850,1393L2553,1564Z" fill="rgb(179,201,255)" stroke="rgb(179,201,255)" stroke-width="1.51"/><path d="M2636,-155L2630,172L2810,108Z" fill="rgb(219,216,243)" stroke="rgb(219,216,243)" stroke-width="1.51"/><path d="M2636,-155L2427,165L2630,172Z" fill="rgb(219,216,243)" stroke="rgb(219,216,243)" stroke-width="1.51"/><path d="M-68,71L-238,-115L-142,191Z" fill="rgb(255,230,230)" stroke="rgb(255,230,230)" stroke-width="1.51"/><path d="M167,-222L-29,-152L237,-137Z" fill="rgb(255,230,230)" stroke="rgb(255,230,230)" stroke-width="1.51"/><path d="M2810,108L2630,172L2756,321Z" fill="rgb(219,218,246)" stroke="rgb(219,218,246)" stroke-width="1.51"/><path d="M2824,527L2810,108L2756,321Z" fill="rgb(219,220,248)" stroke="rgb(219,220,248)" stroke-width="1.51"/><path d="M-271,1234L-278,1483L-26,1285Z" fill="rgb(225,219,242)" stroke="rgb(225,219,242)" stroke-width="1.51"/><path d="M2760,1576L2800,1725L2850,1393Z" fill="rgb(179,201,255)" stroke="rgb(179,201,255)" stroke-width="1.51"/><path d="M2500,1781L2800,1725L2553,1564Z" fill="rgb(179,201,255)" stroke="rgb(179,201,255)" stroke-width="1.51"/><path d="M167,-222L-18,-277L-29,-152Z" fill="rgb(255,230,229)" stroke="rgb(255,230,229)" stroke-width="1.51"/><path d="M-29,-152L-238,-115L-68,71Z" fill="rgb(255,229,229)" stroke="rgb(255,229,229)" stroke-width="1.51"/><path d="M-142,191L-238,-115L-205,392Z" fill="rgb(255,232,232)" stroke="rgb(255,232,232)" stroke-width="1.51"/><path d="M774,-328L-18,-277L167,-222Z" fill="rgb(255,232,232)" stroke="rgb(255,232,232)" stroke-width="1.51"/><path d="M-278,1483L-254,1729L-6,1557Z" fill="rgb(219,215,242)" stroke="rgb(219,215,242)" stroke-width="1.51"/><path d="M2810,108L2859,-52L2636,-155Z" fill="rgb(219,215,242)" stroke="rgb(219,215,242)" stroke-width="1.51"/><path d="M2636,-155L2709,-294L2600,-193Z" fill="rgb(219,215,242)" stroke="rgb(219,215,242)" stroke-width="1.51"/><path d="M2824,527L2859,-52L2810,108Z" fill="rgb(219,218,246)" stroke="rgb(219,218,246)" stroke-width="1.51"/><path d="M2850,1393L2859,-52L2824,527Z" fill="rgb(218,226,253)" stroke="rgb(218,226,253)" stroke-width="1.51"/><path d="M2859,-52L2709,-294L2636,-155Z" fill="rgb(219,215,242)" stroke="rgb(219,215,242)" stroke-width="1.51"/><path d="M2600,-193L2709,-294L2375,-292Z" fill="rgb(219,215,242)" stroke="rgb(219,215,242)" stroke-width="1.51"/><path d="M2375,-292L2709,-294L2218,-329Z" fill="rgb(223,217,242)" stroke="rgb(223,217,242)" stroke-width="1.51"/><path d="M-134,-325L-238,-115L-29,-152Z" fill="rgb(255,229,229)" stroke="rgb(255,229,229)" stroke-width="1.51"/><path d="M-205,392L-238,-115L-271,1234Z" fill="rgb(255,238,238)" stroke="rgb(255,238,238)" stroke-width="1.51"/><path d="M-271,1234L-238,-115L-278,1483Z" fill="rgb(248,237,242)" stroke="rgb(248,237,242)" stroke-width="1.51"/><path d="M-18,-277L-134,-325L-29,-152Z" fill="rgb(255,229,229)" stroke="rgb(255,229,229)" stroke-width="1.51"/><path d="M774,-328L-134,-325L-18,-277Z" fill="rgb(255,231,231)" stroke="rgb(255,231,231)" stroke-width="1.51"/><path d="M1110,-349L-134,-325L774,-328Z" fill="rgb(255,235,235)" stroke="rgb(255,235,235)" stroke-width="1.51"/><path d="M1612,-370L-134,-325L1110,-349Z" fill="rgb(255,238,237)" stroke="rgb(255,238,237)" stroke-width="1.51"/></svg>